<?xml version="1.0" encoding="utf-8"?>
<!-- Generator: Adobe Illustrator 25.0.0, SVG Export Plug-In . SVG Version: 6.00 Build 0)  -->
<svg version="1.1" id="Слой_1" xmlns="http://www.w3.org/2000/svg" xmlns:xlink="http://www.w3.org/1999/xlink" x="0px" y="0px"
	 viewBox="0 0 14 14" style="enable-background:new 0 0 14 14;" xml:space="preserve">
<style type="text/css">
	.st0{fill:#009640;}
</style>
<path class="st0" d="M7.12,13L7.12,13c-0.87,0-1.57-0.7-1.57-1.57V2.57C5.55,1.7,6.25,1,7.12,1h0C7.99,1,8.7,1.7,8.7,2.57v8.86
	C8.7,12.3,7.99,13,7.12,13z"/>
<path class="st0" d="M1,6.82L1,6.82c0-0.87,0.7-1.57,1.57-1.57h8.86c0.87,0,1.57,0.7,1.57,1.57v0c0,0.87-0.7,1.57-1.57,1.57H2.57
	C1.7,8.4,1,7.69,1,6.82z"/>
</svg>
