<?xml version="1.0" encoding="utf-8"?>
<!-- Generator: Adobe Illustrator 25.0.0, SVG Export Plug-In . SVG Version: 6.00 Build 0)  -->
<svg version="1.1" id="Слой_1" xmlns="http://www.w3.org/2000/svg" xmlns:xlink="http://www.w3.org/1999/xlink" x="0px" y="0px"
	 viewBox="0 0 64 64" style="enable-background:new 0 0 64 64;" xml:space="preserve">
<style type="text/css">
	.st0{fill:none;stroke:#009640;stroke-width:3;stroke-miterlimit:10;}
</style>
<path class="st0" d="M47.76,56.76l-14.92-7.97c-0.19-0.1-0.42-0.1-0.61,0l-15.01,7.79c-0.48,0.25-1.03-0.16-0.94-0.69l2.96-16.68
	c0.04-0.21-0.03-0.43-0.18-0.58L7.03,26.74c-0.38-0.38-0.17-1.03,0.37-1.11l16.75-2.34c0.21-0.03,0.4-0.16,0.49-0.35L32.2,7.8
	c0.24-0.48,0.93-0.48,1.17,0.01l7.39,15.23c0.09,0.19,0.28,0.33,0.49,0.36l16.72,2.54c0.53,0.08,0.74,0.74,0.35,1.11L46.14,38.79
	c-0.15,0.15-0.22,0.36-0.19,0.57l2.76,16.71C48.79,56.61,48.23,57.01,47.76,56.76z"/>
</svg>
